<svg width="1600" height="980" viewBox="0 0 1600 980" fill="none" xmlns="http://www.w3.org/2000/svg">
  <defs>
    <linearGradient id="bg" x1="180" y1="0" x2="1420" y2="980" gradientUnits="userSpaceOnUse">
      <stop stop-color="#F5F8FC"/>
      <stop offset="1" stop-color="#EAF0F8"/>
    </linearGradient>
    <linearGradient id="header" x1="24" y1="20" x2="1576" y2="92" gradientUnits="userSpaceOnUse">
      <stop stop-color="#0F172A"/>
      <stop offset="1" stop-color="#172554"/>
    </linearGradient>
    <linearGradient id="hero" x1="24" y1="112" x2="1106" y2="232" gradientUnits="userSpaceOnUse">
      <stop stop-color="#FFFFFF"/>
      <stop offset="1" stop-color="#F8FBFF"/>
    </linearGradient>
    <linearGradient id="accent" x1="1130" y1="112" x2="1576" y2="402" gradientUnits="userSpaceOnUse">
      <stop stop-color="#FFFFFF"/>
      <stop offset="1" stop-color="#F6FAFF"/>
    </linearGradient>
    <filter id="shadow" x="0" y="0" width="1600" height="980" filterUnits="userSpaceOnUse" color-interpolation-filters="sRGB">
      <feFlood flood-opacity="0" result="BackgroundImageFix"/>
      <feColorMatrix in="SourceAlpha" type="matrix" values="0 0 0 0 0 0 0 0 0 0 0 0 0 0 0 0 0 0 127 0" result="hardAlpha"/>
      <feOffset dy="12"/>
      <feGaussianBlur stdDeviation="18"/>
      <feColorMatrix type="matrix" values="0 0 0 0 0.0588 0 0 0 0 0.0941 0 0 0 0 0.1568 0 0 0 0.11 0"/>
      <feBlend mode="normal" in2="BackgroundImageFix" result="effect1_dropShadow_1_1"/>
      <feBlend mode="normal" in="SourceGraphic" in2="effect1_dropShadow_1_1" result="shape"/>
    </filter>
    <filter id="softShadow" x="0" y="0" width="1600" height="980" filterUnits="userSpaceOnUse" color-interpolation-filters="sRGB">
      <feFlood flood-opacity="0" result="BackgroundImageFix"/>
      <feColorMatrix in="SourceAlpha" type="matrix" values="0 0 0 0 0 0 0 0 0 0 0 0 0 0 0 0 0 0 127 0" result="hardAlpha"/>
      <feOffset dy="8"/>
      <feGaussianBlur stdDeviation="10"/>
      <feColorMatrix type="matrix" values="0 0 0 0 0.0745 0 0 0 0 0.102 0 0 0 0 0.1608 0 0 0 0.08 0"/>
      <feBlend mode="normal" in2="BackgroundImageFix" result="effect1_dropShadow_1_1"/>
      <feBlend mode="normal" in="SourceGraphic" in2="effect1_dropShadow_1_1" result="shape"/>
    </filter>
  </defs>

  <rect width="1600" height="980" fill="url(#bg)"/>

  <circle cx="1440" cy="158" r="180" fill="#DCEBFF" fill-opacity="0.55"/>
  <circle cx="196" cy="874" r="150" fill="#E7F8F1" fill-opacity="0.7"/>
  <circle cx="856" cy="980" r="220" fill="#EDF4FF" fill-opacity="0.8"/>

  <g filter="url(#shadow)">
    <rect x="24" y="20" width="1552" height="72" rx="24" fill="url(#header)"/>
  </g>

  <rect x="46" y="34" width="44" height="44" rx="14" fill="#2563EB"/>
  <rect x="54" y="42" width="28" height="28" rx="10" fill="#FFFFFF" fill-opacity="0.16"/>
  <text x="104" y="55" fill="#FFFFFF" font-family="Segoe UI, Arial, sans-serif" font-size="24" font-weight="700">VGC</text>
  <text x="104" y="77" fill="#B9C6E4" font-family="Segoe UI, Arial, sans-serif" font-size="13" font-weight="600">Caja POS · Mockup profesional</text>

  <rect x="292" y="37" width="114" height="38" rx="19" fill="#1E293B"/>
  <text x="315" y="61" fill="#E2E8F0" font-family="Segoe UI, Arial, sans-serif" font-size="14" font-weight="600">Sucursal 01</text>

  <rect x="420" y="37" width="168" height="38" rx="19" fill="#0F766E" fill-opacity="0.24" stroke="#34D399" stroke-opacity="0.28"/>
  <text x="444" y="61" fill="#D1FAE5" font-family="Segoe UI, Arial, sans-serif" font-size="14" font-weight="700">Caja abierta · Lucia Diaz</text>

  <rect x="604" y="37" width="182" height="38" rx="19" fill="#1E293B"/>
  <text x="628" y="61" fill="#E2E8F0" font-family="Segoe UI, Arial, sans-serif" font-size="14" font-weight="600">Casa Central · 26/03/2026</text>

  <rect x="1300" y="37" width="128" height="38" rx="19" fill="#1E293B"/>
  <text x="1325" y="61" fill="#E2E8F0" font-family="Segoe UI, Arial, sans-serif" font-size="14" font-weight="600">F1 Buscar</text>

  <rect x="1442" y="37" width="112" height="38" rx="19" fill="#2563EB"/>
  <text x="1471" y="61" fill="#FFFFFF" font-family="Segoe UI, Arial, sans-serif" font-size="14" font-weight="700">Usuario</text>

  <g filter="url(#softShadow)">
    <rect x="24" y="112" width="1082" height="122" rx="28" fill="url(#hero)"/>
  </g>
  <text x="54" y="150" fill="#0F172A" font-family="Segoe UI, Arial, sans-serif" font-size="28" font-weight="700">Caja de venta</text>
  <text x="54" y="178" fill="#64748B" font-family="Segoe UI, Arial, sans-serif" font-size="15" font-weight="500">Flujo preparado para operacion laboral: rapido, claro y orientado a teclado.</text>

  <rect x="54" y="193" width="560" height="24" rx="12" fill="#E8EFF8"/>
  <rect x="54" y="193" width="390" height="24" rx="12" fill="#2563EB" fill-opacity="0.12"/>
  <text x="68" y="210" fill="#1D4ED8" font-family="Segoe UI, Arial, sans-serif" font-size="12" font-weight="700">Busqueda por scanner, SKU, codigo y nombre</text>

  <rect x="700" y="144" width="120" height="52" rx="18" fill="#FFFFFF" stroke="#D8E4F2"/>
  <text x="734" y="167" fill="#64748B" font-family="Segoe UI, Arial, sans-serif" font-size="12" font-weight="700">Items</text>
  <text x="737" y="188" fill="#0F172A" font-family="Segoe UI, Arial, sans-serif" font-size="20" font-weight="700">05</text>

  <rect x="836" y="144" width="138" height="52" rx="18" fill="#FFFFFF" stroke="#D8E4F2"/>
  <text x="866" y="167" fill="#64748B" font-family="Segoe UI, Arial, sans-serif" font-size="12" font-weight="700">Pagado</text>
  <text x="863" y="188" fill="#059669" font-family="Segoe UI, Arial, sans-serif" font-size="20" font-weight="700">$ 98.500</text>

  <rect x="990" y="144" width="92" height="52" rx="18" fill="#0F172A"/>
  <text x="1017" y="176" fill="#FFFFFF" font-family="Segoe UI, Arial, sans-serif" font-size="14" font-weight="700">F5 Cobrar</text>

  <g filter="url(#softShadow)">
    <rect x="24" y="254" width="1082" height="556" rx="28" fill="#FFFFFF"/>
  </g>

  <text x="52" y="294" fill="#0F172A" font-family="Segoe UI, Arial, sans-serif" font-size="24" font-weight="700">Carrito activo</text>
  <text x="52" y="320" fill="#64748B" font-family="Segoe UI, Arial, sans-serif" font-size="14" font-weight="500">Vista amplia para trabajo continuo con listado grande y sin elementos visuales distractores.</text>

  <rect x="828" y="276" width="162" height="40" rx="16" fill="#F8FAFC" stroke="#D7E0ED"/>
  <text x="858" y="300" fill="#64748B" font-family="Segoe UI, Arial, sans-serif" font-size="13" font-weight="700">Scanner listo</text>

  <rect x="1004" y="276" width="80" height="40" rx="16" fill="#DBEAFE"/>
  <text x="1028" y="300" fill="#1D4ED8" font-family="Segoe UI, Arial, sans-serif" font-size="13" font-weight="700">Buscar</text>

  <rect x="44" y="344" width="1042" height="48" rx="16" fill="#F8FAFC"/>
  <text x="64" y="373" fill="#64748B" font-family="Segoe UI, Arial, sans-serif" font-size="13" font-weight="700">SKU / Producto</text>
  <text x="438" y="373" fill="#64748B" font-family="Segoe UI, Arial, sans-serif" font-size="13" font-weight="700">Stock</text>
  <text x="558" y="373" fill="#64748B" font-family="Segoe UI, Arial, sans-serif" font-size="13" font-weight="700">Cantidad</text>
  <text x="688" y="373" fill="#64748B" font-family="Segoe UI, Arial, sans-serif" font-size="13" font-weight="700">Precio</text>
  <text x="824" y="373" fill="#64748B" font-family="Segoe UI, Arial, sans-serif" font-size="13" font-weight="700">Subtotal</text>
  <text x="964" y="373" fill="#64748B" font-family="Segoe UI, Arial, sans-serif" font-size="13" font-weight="700">Acciones</text>

  <g>
    <rect x="44" y="404" width="1042" height="76" rx="20" fill="#FFFFFF"/>
    <rect x="62" y="424" width="12" height="36" rx="6" fill="#2563EB"/>
    <text x="96" y="434" fill="#0F172A" font-family="Segoe UI, Arial, sans-serif" font-size="16" font-weight="700">CAMP-NEV-42</text>
    <text x="96" y="458" fill="#64748B" font-family="Segoe UI, Arial, sans-serif" font-size="13" font-weight="500">Campera Nevada · Negra · Talle M</text>
    <rect x="428" y="420" width="78" height="28" rx="14" fill="#ECFDF5"/>
    <text x="454" y="439" fill="#059669" font-family="Segoe UI, Arial, sans-serif" font-size="12" font-weight="700">Stock 12</text>
    <rect x="550" y="416" width="92" height="36" rx="16" fill="#F8FAFC" stroke="#D7E0ED"/>
    <text x="588" y="439" fill="#0F172A" font-family="Segoe UI, Arial, sans-serif" font-size="14" font-weight="700">2</text>
    <text x="688" y="439" fill="#0F172A" font-family="Segoe UI, Arial, sans-serif" font-size="15" font-weight="700">$ 42.500</text>
    <text x="824" y="439" fill="#0F172A" font-family="Segoe UI, Arial, sans-serif" font-size="15" font-weight="700">$ 85.000</text>
    <rect x="950" y="416" width="54" height="36" rx="16" fill="#EEF2FF"/>
    <rect x="1014" y="416" width="54" height="36" rx="16" fill="#FEE2E2"/>
    <text x="967" y="439" fill="#4F46E5" font-family="Segoe UI, Arial, sans-serif" font-size="14" font-weight="700">Edit</text>
    <text x="1030" y="439" fill="#DC2626" font-family="Segoe UI, Arial, sans-serif" font-size="14" font-weight="700">Del</text>
  </g>

  <g>
    <rect x="44" y="492" width="1042" height="76" rx="20" fill="#FFFFFF"/>
    <rect x="62" y="512" width="12" height="36" rx="6" fill="#14B8A6"/>
    <text x="96" y="522" fill="#0F172A" font-family="Segoe UI, Arial, sans-serif" font-size="16" font-weight="700">REM-URB-38</text>
    <text x="96" y="546" fill="#64748B" font-family="Segoe UI, Arial, sans-serif" font-size="13" font-weight="500">Remera Urbana · Blanca · Talle L</text>
    <rect x="428" y="508" width="78" height="28" rx="14" fill="#FEF3C7"/>
    <text x="454" y="527" fill="#B45309" font-family="Segoe UI, Arial, sans-serif" font-size="12" font-weight="700">Stock 03</text>
    <rect x="550" y="504" width="92" height="36" rx="16" fill="#F8FAFC" stroke="#D7E0ED"/>
    <text x="588" y="527" fill="#0F172A" font-family="Segoe UI, Arial, sans-serif" font-size="14" font-weight="700">1</text>
    <text x="688" y="527" fill="#0F172A" font-family="Segoe UI, Arial, sans-serif" font-size="15" font-weight="700">$ 13.500</text>
    <text x="824" y="527" fill="#0F172A" font-family="Segoe UI, Arial, sans-serif" font-size="15" font-weight="700">$ 13.500</text>
    <rect x="950" y="504" width="54" height="36" rx="16" fill="#EEF2FF"/>
    <rect x="1014" y="504" width="54" height="36" rx="16" fill="#FEE2E2"/>
    <text x="967" y="527" fill="#4F46E5" font-family="Segoe UI, Arial, sans-serif" font-size="14" font-weight="700">Edit</text>
    <text x="1030" y="527" fill="#DC2626" font-family="Segoe UI, Arial, sans-serif" font-size="14" font-weight="700">Del</text>
  </g>

  <g>
    <rect x="44" y="580" width="1042" height="76" rx="20" fill="#FFFFFF"/>
    <rect x="62" y="600" width="12" height="36" rx="6" fill="#F59E0B"/>
    <text x="96" y="610" fill="#0F172A" font-family="Segoe UI, Arial, sans-serif" font-size="16" font-weight="700">PANT-JOG-40</text>
    <text x="96" y="634" fill="#64748B" font-family="Segoe UI, Arial, sans-serif" font-size="13" font-weight="500">Jogger New Line · Gris · Talle 40</text>
    <rect x="428" y="596" width="78" height="28" rx="14" fill="#ECFDF5"/>
    <text x="454" y="615" fill="#059669" font-family="Segoe UI, Arial, sans-serif" font-size="12" font-weight="700">Stock 08</text>
    <rect x="550" y="592" width="92" height="36" rx="16" fill="#F8FAFC" stroke="#D7E0ED"/>
    <text x="588" y="615" fill="#0F172A" font-family="Segoe UI, Arial, sans-serif" font-size="14" font-weight="700">1</text>
    <text x="688" y="615" fill="#0F172A" font-family="Segoe UI, Arial, sans-serif" font-size="15" font-weight="700">$ 18.900</text>
    <text x="824" y="615" fill="#0F172A" font-family="Segoe UI, Arial, sans-serif" font-size="15" font-weight="700">$ 18.900</text>
    <rect x="950" y="592" width="54" height="36" rx="16" fill="#EEF2FF"/>
    <rect x="1014" y="592" width="54" height="36" rx="16" fill="#FEE2E2"/>
    <text x="967" y="615" fill="#4F46E5" font-family="Segoe UI, Arial, sans-serif" font-size="14" font-weight="700">Edit</text>
    <text x="1030" y="615" fill="#DC2626" font-family="Segoe UI, Arial, sans-serif" font-size="14" font-weight="700">Del</text>
  </g>

  <g>
    <rect x="44" y="680" width="1042" height="106" rx="22" fill="#F8FBFF" stroke="#DAE6F3"/>
    <text x="66" y="712" fill="#0F172A" font-family="Segoe UI, Arial, sans-serif" font-size="16" font-weight="700">Observaciones operativas</text>
    <text x="66" y="740" fill="#64748B" font-family="Segoe UI, Arial, sans-serif" font-size="13" font-weight="500">• El escaner permanece enfocado. • Los accesos rapidos se apoyan en teclado. • El total siempre queda visible.</text>
    <text x="66" y="764" fill="#64748B" font-family="Segoe UI, Arial, sans-serif" font-size="13" font-weight="500">• Los mensajes de error se muestran como toasts superiores. • El ticket reciente se consulta sin tapar el flujo de cobro.</text>
  </g>

  <g filter="url(#softShadow)">
    <rect x="24" y="830" width="1082" height="126" rx="28" fill="#0F172A"/>
  </g>
  <text x="54" y="870" fill="#94A3B8" font-family="Segoe UI, Arial, sans-serif" font-size="13" font-weight="700">TOTAL A COBRAR</text>
  <text x="54" y="920" fill="#FFFFFF" font-family="Segoe UI, Arial, sans-serif" font-size="44" font-weight="700">$ 117.400</text>

  <rect x="406" y="852" width="164" height="80" rx="22" fill="#172554"/>
  <text x="432" y="883" fill="#93C5FD" font-family="Segoe UI, Arial, sans-serif" font-size="13" font-weight="700">Pagado</text>
  <text x="432" y="916" fill="#FFFFFF" font-family="Segoe UI, Arial, sans-serif" font-size="26" font-weight="700">$ 98.500</text>

  <rect x="588" y="852" width="164" height="80" rx="22" fill="#3F2B13"/>
  <text x="614" y="883" fill="#FDE68A" font-family="Segoe UI, Arial, sans-serif" font-size="13" font-weight="700">Saldo</text>
  <text x="614" y="916" fill="#FFFFFF" font-family="Segoe UI, Arial, sans-serif" font-size="26" font-weight="700">$ 18.900</text>

  <rect x="770" y="852" width="136" height="80" rx="22" fill="#172554"/>
  <text x="804" y="883" fill="#93C5FD" font-family="Segoe UI, Arial, sans-serif" font-size="13" font-weight="700">Atajos</text>
  <text x="799" y="916" fill="#FFFFFF" font-family="Segoe UI, Arial, sans-serif" font-size="23" font-weight="700">Alt + C</text>

  <rect x="918" y="846" width="168" height="92" rx="24" fill="#10B981"/>
  <text x="950" y="883" fill="#D1FAE5" font-family="Segoe UI, Arial, sans-serif" font-size="13" font-weight="700">Accion principal</text>
  <text x="954" y="918" fill="#FFFFFF" font-family="Segoe UI, Arial, sans-serif" font-size="28" font-weight="700">Confirmar venta</text>

  <g filter="url(#softShadow)">
    <rect x="1130" y="112" width="446" height="292" rx="28" fill="url(#accent)"/>
  </g>
  <text x="1160" y="152" fill="#0F172A" font-family="Segoe UI, Arial, sans-serif" font-size="24" font-weight="700">Resumen de pagos</text>
  <text x="1160" y="178" fill="#64748B" font-family="Segoe UI, Arial, sans-serif" font-size="14" font-weight="500">Panel lateral para ver el estado de cobro sin perder foco del carrito.</text>

  <rect x="1160" y="202" width="178" height="76" rx="22" fill="#EFF6FF"/>
  <text x="1186" y="230" fill="#2563EB" font-family="Segoe UI, Arial, sans-serif" font-size="13" font-weight="700">Subtotal items</text>
  <text x="1186" y="260" fill="#0F172A" font-family="Segoe UI, Arial, sans-serif" font-size="28" font-weight="700">$ 111.900</text>

  <rect x="1352" y="202" width="194" height="76" rx="22" fill="#ECFDF5"/>
  <text x="1378" y="230" fill="#059669" font-family="Segoe UI, Arial, sans-serif" font-size="13" font-weight="700">Recargos y extras</text>
  <text x="1378" y="260" fill="#0F172A" font-family="Segoe UI, Arial, sans-serif" font-size="28" font-weight="700">$ 5.500</text>

  <rect x="1160" y="296" width="386" height="44" rx="18" fill="#FFFFFF"/>
  <circle cx="1186" cy="318" r="8" fill="#10B981"/>
  <text x="1204" y="323" fill="#0F172A" font-family="Segoe UI, Arial, sans-serif" font-size="14" font-weight="700">Debito · Ref. 98127</text>
  <text x="1466" y="323" fill="#059669" font-family="Segoe UI, Arial, sans-serif" font-size="14" font-weight="700">$ 54.000</text>

  <rect x="1160" y="348" width="386" height="44" rx="18" fill="#FFFFFF"/>
  <circle cx="1186" cy="370" r="8" fill="#2563EB"/>
  <text x="1204" y="375" fill="#0F172A" font-family="Segoe UI, Arial, sans-serif" font-size="14" font-weight="700">Credito VISA · 3 cuotas</text>
  <text x="1458" y="375" fill="#1D4ED8" font-family="Segoe UI, Arial, sans-serif" font-size="14" font-weight="700">$ 44.500</text>

  <g filter="url(#softShadow)">
    <rect x="1130" y="422" width="446" height="176" rx="28" fill="#FFFFFF"/>
  </g>
  <text x="1160" y="462" fill="#0F172A" font-family="Segoe UI, Arial, sans-serif" font-size="22" font-weight="700">Accesos rapidos</text>
  <rect x="1160" y="486" width="118" height="76" rx="20" fill="#F8FAFC" stroke="#D8E4F2"/>
  <text x="1188" y="516" fill="#64748B" font-family="Segoe UI, Arial, sans-serif" font-size="13" font-weight="700">Buscar</text>
  <text x="1192" y="548" fill="#0F172A" font-family="Segoe UI, Arial, sans-serif" font-size="26" font-weight="700">F1</text>
  <rect x="1294" y="486" width="118" height="76" rx="20" fill="#F8FAFC" stroke="#D8E4F2"/>
  <text x="1325" y="516" fill="#64748B" font-family="Segoe UI, Arial, sans-serif" font-size="13" font-weight="700">Pagos</text>
  <text x="1328" y="548" fill="#0F172A" font-family="Segoe UI, Arial, sans-serif" font-size="26" font-weight="700">F2</text>
  <rect x="1428" y="486" width="118" height="76" rx="20" fill="#FEF3C7" stroke="#FDE68A"/>
  <text x="1454" y="516" fill="#B45309" font-family="Segoe UI, Arial, sans-serif" font-size="13" font-weight="700">Cerrar caja</text>
  <text x="1450" y="548" fill="#92400E" font-family="Segoe UI, Arial, sans-serif" font-size="24" font-weight="700">Alt + C</text>

  <g filter="url(#softShadow)">
    <rect x="1130" y="616" width="446" height="340" rx="28" fill="#FFFFFF"/>
  </g>
  <text x="1160" y="656" fill="#0F172A" font-family="Segoe UI, Arial, sans-serif" font-size="24" font-weight="700">Ultimo ticket</text>
  <text x="1160" y="684" fill="#64748B" font-family="Segoe UI, Arial, sans-serif" font-size="14" font-weight="500">Tarjeta de consulta permanente, visible pero sin robar protagonismo.</text>

  <rect x="1160" y="710" width="386" height="180" rx="24" fill="#F8FBFF" stroke="#DCE7F3"/>
  <text x="1188" y="754" fill="#2563EB" font-family="Segoe UI, Arial, sans-serif" font-size="14" font-weight="700">VTA-000184</text>
  <text x="1188" y="792" fill="#0F172A" font-family="Segoe UI, Arial, sans-serif" font-size="30" font-weight="700">$ 105.000</text>
  <text x="1188" y="822" fill="#64748B" font-family="Segoe UI, Arial, sans-serif" font-size="14" font-weight="500">Cliente: Ana Lopez</text>
  <text x="1188" y="846" fill="#64748B" font-family="Segoe UI, Arial, sans-serif" font-size="14" font-weight="500">Cajero: Lucia Diaz</text>
  <text x="1188" y="870" fill="#64748B" font-family="Segoe UI, Arial, sans-serif" font-size="14" font-weight="500">26/03/2026 · 10:44 hs</text>

  <rect x="1188" y="900" width="142" height="34" rx="17" fill="#DBEAFE"/>
  <text x="1231" y="922" fill="#1D4ED8" font-family="Segoe UI, Arial, sans-serif" font-size="13" font-weight="700">Ver detalle</text>
  <rect x="1340" y="900" width="142" height="34" rx="17" fill="#DCFCE7"/>
  <text x="1388" y="922" fill="#15803D" font-family="Segoe UI, Arial, sans-serif" font-size="13" font-weight="700">Imprimir</text>

  <text x="24" y="968" fill="#64748B" font-family="Segoe UI, Arial, sans-serif" font-size="12" font-weight="500">Archivo de referencia para rediseo: docs/mockups/caja-pos-professional-mockup.svg</text>
</svg>
